<?xml version="1.0" standalone="no"?>
<!DOCTYPE svg PUBLIC "-//W3C//DTD SVG 20010904//EN"
 "http://www.w3.org/TR/2001/REC-SVG-20010904/DTD/svg10.dtd">
<svg version="1.0" xmlns="http://www.w3.org/2000/svg"
 width="527.000000pt" height="527.000000pt" viewBox="0 0 527.000000 527.000000"
 preserveAspectRatio="xMidYMid meet">
<metadata>
Created by potrace 1.11, written by Peter Selinger 2001-2013
</metadata>
<g transform="translate(0.000000,527.000000) scale(0.100000,-0.100000)"
fill="#000000" stroke="none">
<path d="M450 4387 c-35 -18 -46 -61 -46 -177 1 -104 -9 -127 -40 -95 -22 22
-37 19 -66 -12 -16 -18 -28 -44 -32 -72 -8 -59 -28 -87 -67 -95 -53 -10 -59
-21 -59 -105 0 -77 17 -153 45 -208 8 -15 15 -33 15 -39 0 -6 7 -17 15 -24 20
-16 19 -56 -1 -64 -8 -3 -26 -3 -39 0 -38 9 -65 -12 -65 -52 0 -76 65 -171
159 -232 31 -20 59 -41 63 -46 3 -5 -7 -22 -22 -38 -30 -29 -32 -52 -10 -93 9
-17 108 -94 159 -125 10 -6 12 -20 7 -55 -11 -67 24 -117 110 -154 53 -24 63
-39 37 -60 -12 -9 -24 -27 -28 -40 -6 -20 2 -32 49 -78 53 -50 57 -56 55 -96
-4 -80 27 -108 179 -159 123 -41 143 -55 137 -97 -3 -25 3 -36 33 -61 20 -16
42 -30 49 -30 6 0 25 -12 42 -26 17 -14 46 -28 66 -31 25 -4 35 -11 35 -24 0
-28 38 -57 96 -74 30 -8 58 -24 63 -34 6 -10 24 -24 41 -31 17 -7 30 -20 30
-30 0 -9 9 -29 20 -43 25 -31 98 -44 159 -27 37 10 47 8 86 -11 25 -13 45 -26
45 -31 0 -33 -232 -109 -455 -149 -93 -16 -180 -36 -192 -44 -26 -17 -38 -66
-23 -94 16 -31 88 -67 160 -81 94 -18 98 -19 102 -38 2 -9 1 -31 -3 -48 -3
-18 -1 -37 6 -47 16 -22 82 -35 149 -30 l56 4 0 -29 c0 -44 10 -62 37 -73 25
-9 119 6 140 23 9 7 18 4 31 -12 37 -45 152 -13 235 66 31 30 40 34 53 24 23
-20 110 -5 157 26 33 22 43 24 65 15 41 -17 97 -1 148 43 28 22 33 24 51 11
42 -30 139 -75 173 -81 19 -4 63 -25 97 -47 70 -45 70 -48 9 -106 -41 -40 -46
-71 -15 -102 30 -30 54 -21 54 21 0 19 4 41 8 48 11 16 87 48 107 43 8 -1 45
-23 82 -47 49 -33 70 -54 80 -79 6 -19 18 -35 25 -35 22 0 103 93 103 118 0
19 4 21 25 16 16 -4 34 0 50 10 13 9 34 16 46 16 12 0 34 15 51 34 16 19 43
40 61 47 56 23 63 58 18 85 -17 10 -28 21 -25 25 7 12 -27 18 -96 17 -109 -2
-161 9 -197 44 -18 17 -32 34 -31 37 2 21 -6 34 -36 62 -65 59 -102 185 -79
274 24 94 83 145 170 145 68 0 102 -15 183 -81 53 -43 72 -53 104 -53 39 -1
52 10 69 57 3 10 57 -13 57 -24 0 -5 13 -15 29 -23 26 -14 30 -14 44 2 26 29
16 101 -23 163 -18 30 -46 64 -61 76 -16 13 -30 38 -33 59 -7 33 -4 39 32 74
26 26 57 44 95 55 43 12 59 22 68 43 11 26 17 28 77 29 64 2 102 20 102 48 0
9 27 14 83 17 91 5 155 30 182 72 14 22 24 24 100 27 80 4 86 6 119 38 47 46
53 67 27 95 -27 29 -16 40 52 55 25 6 70 22 99 35 54 24 128 88 128 111 0 17
-35 46 -45 38 -5 -5 -3 0 5 10 7 10 37 30 64 44 119 60 176 118 176 179 0 35
-25 74 -46 74 -9 0 4 17 28 38 204 177 293 379 226 512 -13 25 -30 46 -39 48
-16 3 -24 -4 -58 -43 -7 -9 -14 -15 -16 -13 -2 2 5 35 14 73 10 39 17 81 15
95 -1 14 -6 51 -9 82 -5 47 -12 62 -36 83 -17 14 -39 25 -50 25 -25 0 -61 -18
-72 -36 -16 -27 -24 -13 -17 28 12 61 6 237 -9 283 -34 103 -107 140 -149 74
l-19 -31 -22 36 c-12 19 -36 47 -52 61 -31 25 -82 34 -94 15 -3 -5 -6 -64 -6
-130 -1 -103 -5 -136 -31 -228 -16 -59 -32 -116 -35 -127 -2 -11 -39 -72 -81
-135 -54 -81 -93 -127 -130 -155 -29 -22 -66 -60 -83 -85 -39 -58 -34 -54
-190 -206 -74 -72 -156 -143 -184 -159 -27 -15 -91 -52 -141 -81 -56 -33 -131
-66 -190 -84 -188 -58 -249 -87 -296 -142 -24 -27 -63 -71 -88 -96 -25 -26
-59 -65 -75 -87 -49 -67 -144 -152 -204 -183 -85 -44 -138 -55 -243 -50 -105
5 -167 30 -281 111 -120 87 -300 292 -355 406 -26 54 -53 85 -157 181 -27 25
-71 72 -98 105 -27 33 -68 78 -91 100 -50 47 -235 145 -321 170 -214 61 -347
120 -447 197 -36 28 -112 128 -142 187 -35 66 -59 196 -64 339 -4 131 -6 144
-25 157 -26 18 -54 19 -87 2z m2403 -3020 c34 -53 82 -86 131 -91 36 -4 68
-26 62 -42 -3 -9 -1 -12 4 -9 6 3 10 -5 10 -19 0 -18 -5 -26 -17 -26 -10 0
-27 -7 -37 -15 -47 -36 -96 -6 -137 83 -17 36 -37 72 -45 80 -8 7 -11 18 -8
24 4 6 2 8 -4 4 -6 -3 -20 6 -31 21 -17 20 -19 28 -9 35 28 17 48 6 81 -45z"/>
</g>
</svg>
